# Blender 4.1.1
# www.blender.org
mtllib balancoire.mtl
o Cylinder.003
v 6.661134 -0.159390 -1.660784
v 6.661134 5.639478 1.043273
v 6.956165 -0.231378 -1.506406
v 6.956165 5.567491 1.197651
v 6.956165 -0.375352 -1.197651
v 6.956165 5.423516 1.506406
v 6.661134 -0.447340 -1.043273
v 6.661134 5.351528 1.660784
v 6.366102 -0.375352 -1.197651
v 6.366102 5.423516 1.506406
v 6.366102 -0.231378 -1.506406
v 6.366102 5.567491 1.197651
v 0.000000 -0.159390 -1.660784
v 0.000000 5.639478 1.043273
v 0.295033 -0.231378 -1.506406
v 0.295033 5.567491 1.197651
v 0.295033 -0.375353 -1.197651
v 0.295033 5.423515 1.506406
v 0.000000 -0.447340 -1.043273
v 0.000000 5.351528 1.660784
v -0.295032 -0.375353 -1.197651
v -0.295032 5.423515 1.506406
v -0.295032 -0.231378 -1.506406
v -0.295032 5.567491 1.197651
v 0.000000 -0.447340 3.776208
v 0.000000 5.351528 1.072152
v 0.295033 -0.375352 3.930585
v 0.295033 5.423516 1.226529
v 0.295033 -0.231377 4.239340
v 0.295033 5.567491 1.535285
v 0.000000 -0.159390 4.393718
v 0.000000 5.639478 1.689662
v -0.295032 -0.231377 4.239340
v -0.295032 5.567491 1.535285
v -0.295032 -0.375352 3.930585
v -0.295032 5.423516 1.226529
v 6.661134 -0.447340 3.776208
v 6.661134 5.351528 1.072152
v 6.956166 -0.375352 3.930585
v 6.956166 5.423516 1.226529
v 6.956166 -0.231377 4.239340
v 6.956166 5.567491 1.535285
v 6.661134 -0.159390 4.393718
v 6.661134 5.639478 1.689662
v 6.366102 -0.231377 4.239340
v 6.366102 5.567491 1.535285
v 6.366102 -0.375352 3.930585
v 6.366102 5.423516 1.226529
v -0.304943 5.515472 0.995267
v 6.908030 5.515472 0.995267
v -0.304943 5.220440 1.165604
v 6.908030 5.220440 1.165604
v -0.304943 5.220440 1.506278
v 6.908030 5.220440 1.506278
v -0.304943 5.515472 1.676615
v 6.908030 5.515472 1.676615
v -0.304943 5.810504 1.506278
v 6.908030 5.810505 1.506278
v -0.304943 5.810504 1.165604
v 6.908030 5.810505 1.165604
v 2.171991 5.297949 1.236466
v 2.171992 1.476171 1.236466
v 2.085844 5.297949 1.286204
v 2.085844 1.476171 1.286204
v 2.085844 5.297949 1.385679
v 2.085844 1.476171 1.385679
v 2.171991 5.297949 1.435416
v 2.171992 1.476171 1.435416
v 2.258139 5.297949 1.385679
v 2.258140 1.476171 1.385679
v 2.258139 5.297949 1.286204
v 2.258140 1.476171 1.286204
v 3.412262 5.297949 1.236466
v 3.412262 1.476171 1.236466
v 3.326114 5.297949 1.286204
v 3.326114 1.476171 1.286204
v 3.326114 5.297949 1.385679
v 3.326114 1.476171 1.385679
v 3.412262 5.297949 1.435416
v 3.412262 1.476171 1.435416
v 3.498410 5.297949 1.385679
v 3.498410 1.476171 1.385679
v 3.498410 5.297949 1.286204
v 3.498410 1.476171 1.286204
v 1.736882 1.483051 1.698239
v 1.736882 1.652687 1.698239
v 1.736882 1.483051 0.862068
v 1.736882 1.652687 0.862068
v 3.736882 1.483051 1.698239
v 3.736882 1.652687 1.698239
v 3.736882 1.483051 0.862068
v 3.736882 1.652687 0.862068
vn 0.5000 0.3660 -0.7849
vn 1.0000 -0.0000 -0.0000
vn 0.5000 -0.3660 0.7849
vn -0.5000 -0.3660 0.7849
vn -0.0000 0.9063 0.4226
vn -1.0000 -0.0000 -0.0000
vn -0.5000 0.3660 -0.7849
vn -0.0000 -0.9063 -0.4226
vn 0.5000 -0.3660 -0.7849
vn 0.5000 0.3660 0.7849
vn -0.5000 0.3660 0.7849
vn -0.0000 0.9063 -0.4226
vn -0.5000 -0.3660 -0.7849
vn -0.0000 -0.9063 0.4226
vn -0.0000 -0.5000 -0.8660
vn -0.0000 -1.0000 -0.0000
vn -0.0000 -0.5000 0.8660
vn -0.0000 0.5000 0.8660
vn -0.0000 1.0000 -0.0000
vn -0.0000 0.5000 -0.8660
vn -0.5000 -0.0000 -0.8660
vn -0.5000 -0.0000 0.8660
vn 0.5000 -0.0000 0.8660
vn 0.5000 -0.0000 -0.8660
vn -0.0000 -0.0000 -1.0000
vn -0.0000 -0.0000 1.0000
vt 1.000000 0.500000
vt 1.000000 1.000000
vt 0.833333 1.000000
vt 0.833333 0.500000
vt 0.666667 1.000000
vt 0.666667 0.500000
vt 0.500000 1.000000
vt 0.500000 0.500000
vt 0.333333 1.000000
vt 0.333333 0.500000
vt 0.457846 0.370000
vt 0.250000 0.490000
vt 0.042154 0.370000
vt 0.042154 0.130000
vt 0.250000 0.010000
vt 0.457846 0.130000
vt 0.166667 1.000000
vt 0.166667 0.500000
vt -0.000000 1.000000
vt -0.000000 0.500000
vt 0.750000 0.490000
vt 0.957846 0.370000
vt 0.957846 0.130000
vt 0.750000 0.010000
vt 0.542154 0.130000
vt 0.542154 0.370000
vt 0.375000 0.000000
vt 0.625000 0.000000
vt 0.625000 0.250000
vt 0.375000 0.250000
vt 0.625000 0.500000
vt 0.375000 0.500000
vt 0.625000 0.750000
vt 0.375000 0.750000
vt 0.625000 1.000000
vt 0.375000 1.000000
vt 0.125000 0.500000
vt 0.125000 0.750000
vt 0.875000 0.500000
vt 0.875000 0.750000
s 0
f 1/1/1 2/2/1 4/3/1 3/4/1
f 3/4/2 4/3/2 6/5/2 5/6/2
f 5/6/3 6/5/3 8/7/3 7/8/3
f 7/8/4 8/7/4 10/9/4 9/10/4
f 4/11/5 2/12/5 12/13/5 10/14/5 8/15/5 6/16/5
f 9/10/6 10/9/6 12/17/6 11/18/6
f 11/18/7 12/17/7 2/19/7 1/20/7
f 1/21/8 3/22/8 5/23/8 7/24/8 9/25/8 11/26/8
f 13/1/1 14/2/1 16/3/1 15/4/1
f 15/4/2 16/3/2 18/5/2 17/6/2
f 17/6/3 18/5/3 20/7/3 19/8/3
f 19/8/4 20/7/4 22/9/4 21/10/4
f 16/11/5 14/12/5 24/13/5 22/14/5 20/15/5 18/16/5
f 21/10/6 22/9/6 24/17/6 23/18/6
f 23/18/7 24/17/7 14/19/7 13/20/7
f 13/21/8 15/22/8 17/23/8 19/24/8 21/25/8 23/26/8
f 25/1/9 26/2/9 28/3/9 27/4/9
f 27/4/2 28/3/2 30/5/2 29/6/2
f 29/6/10 30/5/10 32/7/10 31/8/10
f 31/8/11 32/7/11 34/9/11 33/10/11
f 28/11/12 26/12/12 36/13/12 34/14/12 32/15/12 30/16/12
f 33/10/6 34/9/6 36/17/6 35/18/6
f 35/18/13 36/17/13 26/19/13 25/20/13
f 25/21/14 27/22/14 29/23/14 31/24/14 33/25/14 35/26/14
f 37/1/9 38/2/9 40/3/9 39/4/9
f 39/4/2 40/3/2 42/5/2 41/6/2
f 41/6/10 42/5/10 44/7/10 43/8/10
f 43/8/11 44/7/11 46/9/11 45/10/11
f 40/11/12 38/12/12 48/13/12 46/14/12 44/15/12 42/16/12
f 45/10/6 46/9/6 48/17/6 47/18/6
f 47/18/13 48/17/13 38/19/13 37/20/13
f 37/21/14 39/22/14 41/23/14 43/24/14 45/25/14 47/26/14
f 49/1/15 50/2/15 52/3/15 51/4/15
f 51/4/16 52/3/16 54/5/16 53/6/16
f 53/6/17 54/5/17 56/7/17 55/8/17
f 55/8/18 56/7/18 58/9/18 57/10/18
f 52/11/2 50/12/2 60/13/2 58/14/2 56/15/2 54/16/2
f 57/10/19 58/9/19 60/17/19 59/18/19
f 59/18/20 60/17/20 50/19/20 49/20/20
f 49/21/6 51/22/6 53/23/6 55/24/6 57/25/6 59/26/6
f 61/1/21 62/2/21 64/3/21 63/4/21
f 63/4/6 64/3/6 66/5/6 65/6/6
f 65/6/22 66/5/22 68/7/22 67/8/22
f 67/8/23 68/7/23 70/9/23 69/10/23
f 64/11/16 62/12/16 72/13/16 70/14/16 68/15/16 66/16/16
f 69/10/2 70/9/2 72/17/2 71/18/2
f 71/18/24 72/17/24 62/19/24 61/20/24
f 61/21/19 63/22/19 65/23/19 67/24/19 69/25/19 71/26/19
f 73/1/21 74/2/21 76/3/21 75/4/21
f 75/4/6 76/3/6 78/5/6 77/6/6
f 77/6/22 78/5/22 80/7/22 79/8/22
f 79/8/23 80/7/23 82/9/23 81/10/23
f 76/11/16 74/12/16 84/13/16 82/14/16 80/15/16 78/16/16
f 81/10/2 82/9/2 84/17/2 83/18/2
f 83/18/24 84/17/24 74/19/24 73/20/24
f 73/21/19 75/22/19 77/23/19 79/24/19 81/25/19 83/26/19
f 85/27/6 86/28/6 88/29/6 87/30/6
f 87/30/25 88/29/25 92/31/25 91/32/25
f 91/32/2 92/31/2 90/33/2 89/34/2
f 89/34/26 90/33/26 86/35/26 85/36/26
f 87/37/16 91/32/16 89/34/16 85/38/16
f 92/31/19 88/39/19 86/40/19 90/33/19
